HIERARCHY
ROOT Hips
{
	OFFSET 0.00000 0.00000 0.00000
	CHANNELS 6 Xposition Yposition Zposition Zrotation Yrotation Xrotation 
	JOINT LHipJoint
	{
		OFFSET 0 0 0
		CHANNELS 3 Zrotation Yrotation Xrotation
		JOINT LeftHip
		{
			OFFSET 1.66553 -1.82942 0.76350
			CHANNELS 3 Zrotation Yrotation Xrotation
			JOINT LeftKnee
			{
				OFFSET 2.41740 -6.64177 0.00000
				CHANNELS 3 Zrotation Yrotation Xrotation
				JOINT LeftAnkle
				{
					OFFSET 2.71614 -7.46254 0.00000
					CHANNELS 3 Zrotation Yrotation Xrotation
					JOINT LeftToe
					{
						OFFSET 0.08005 -0.21993 1.82495
						CHANNELS 3 Zrotation Yrotation Xrotation
						End Site
						{
							OFFSET 0.00000 -0.00000 0.93441
						}
					}
				}
			}
		}
	}
	JOINT RHipJoint
	{
		OFFSET 0 0 0
		CHANNELS 3 Zrotation Yrotation Xrotation
		JOINT RightHip
		{
			OFFSET -1.63725 -1.82942 0.76350
			CHANNELS 3 Zrotation Yrotation Xrotation
			JOINT RightKnee
			{
				OFFSET -2.40538 -6.60872 0.00000
				CHANNELS 3 Zrotation Yrotation Xrotation
				JOINT RightAnkle
				{
					OFFSET -2.73312 -7.50919 0.00000
					CHANNELS 3 Zrotation Yrotation Xrotation
					JOINT RightToe
					{
						OFFSET -0.15567 -0.42769 1.93504
						CHANNELS 3 Zrotation Yrotation Xrotation
						End Site
						{
							OFFSET -0.00000 -0.00000 1.00100
						}
					}
				}
			}
		}
	}
	JOINT lowerback
	{
		OFFSET 0 0 0
		CHANNELS 3 Zrotation Yrotation Xrotation
		JOINT Chest
		{
			OFFSET 0.00326 2.30118 -0.13017
			CHANNELS 3 Zrotation Yrotation Xrotation
			JOINT Chest2
			{
				OFFSET 0.02887 2.30677 0.00834
				CHANNELS 3 Zrotation Yrotation Xrotation
				JOINT lowerneck
				{
					OFFSET 0 0 0
					CHANNELS 3 Zrotation Yrotation Xrotation
					JOINT Neck
					{
						OFFSET 0.12946 1.68326 0.00713
						CHANNELS 3 Zrotation Yrotation Xrotation
						JOINT Head
						{
							OFFSET -0.24364 1.67243 -0.16079
							CHANNELS 3 Zrotation Yrotation Xrotation
							End Site
							{
								OFFSET -0.09229 1.70819 -0.06383
							}
						}
					}
				}
				JOINT LeftCollar
				{
					OFFSET 0 0 0
					CHANNELS 3 Zrotation Yrotation Xrotation
					JOINT LeftShoulder
					{
						OFFSET 3.28104 0.69567 -0.00556
CHANNELS 3 Zrotation Xrotation Yrotation
						JOINT LeftElbow
						{
OFFSET 0 -5.707060 -0.000000
CHANNELS 3 Zrotation Xrotation Yrotation
							JOINT LeftWrist
							{
OFFSET 0 -3.332430 0.000000
CHANNELS 3 Zrotation Xrotation Yrotation
								JOINT lhand
								{
									OFFSET 0 0 0
CHANNELS 3 Zrotation Xrotation Yrotation
									JOINT LFingers
									{
OFFSET 0 -0.792690 0.000000
CHANNELS 3 Zrotation Xrotation Yrotation
										End Site
										{
OFFSET 0 -0.639090 0.000000
										}
									}
								}
								JOINT LThumb
								{
OFFSET 0 0.000000 0.000000
CHANNELS 3 Zrotation Xrotation Yrotation
									End Site
									{
OFFSET 0 -0.648840 0.648840
									}
								}
							}
						}
					}
				}
				JOINT RightCollar
				{
					OFFSET 0 0 0
					CHANNELS 3 Zrotation Yrotation Xrotation
					JOINT RightShoulder
					{
						OFFSET -3.40955 0.64424 0.14010
CHANNELS 3 Zrotation Xrotation Yrotation
						JOINT RightElbow
						{
OFFSET 0 -5.881760 -0.000000
CHANNELS 3 Zrotation Xrotation Yrotation
							JOINT RightWrist
							{
OFFSET 0 -3.281560 0.000000
CHANNELS 3 Zrotation Xrotation Yrotation
								JOINT rhand
								{
									OFFSET 0 0 0
CHANNELS 3 Zrotation Xrotation Yrotation
									JOINT RFingers
									{
OFFSET 0 -0.863130 0.000000
CHANNELS 3 Zrotation Xrotation Yrotation
										End Site
										{
OFFSET 0 -0.695870 0.000000
										}
									}
								}
								JOINT RThumb
								{
OFFSET 0 0.000000 0.000000
CHANNELS 3 Zrotation Xrotation Yrotation
									End Site
									{
OFFSET 0 -0.706500 0.706500
									}
								}
							}
						}
					}
				}
			}
		}
	}
}
MOTION
Frames: 6
Frame Time: 0.008333333333333333
15.185267 18.086447 5.436269 0.565398 -11.029383 12.399850 0.000000 0.000000 0.000000 -17.942999 -12.550748 -16.971428 1.516231 7.775812 22.035235 0.492384 -8.818042 -13.064633 1.803479 -8.443435 -24.069686 0.000000 0.000000 0.000000 20.542939 5.202022 -20.652874 -1.485232 -7.699521 21.805179 -0.413936 11.581059 -13.121781 -2.135994 -9.143773 26.246112 1.541290 -1.922388 10.250148 -0.917499 -2.439109 -2.363265 -1.417198 -1.288865 -8.379160 14.530895 5.917370 7.704965 -20.049177 4.790867 -41.231561 -12.124612 2.415579 -14.207890 0.000000 0.000000 0.000000 56.634754 8.400687 -48.221348 155.985389 -35.176937 112.283848 -3.400353 -31.584658 -7.089609 0.000000 0.000000 0.000000 -7.125000 0.000000 0.000000 -24.908591 35.976785 -5.999007 0.000000 0.000000 0.000000 -39.993887 7.402431 28.683083 -156.110161 -35.047404 -112.356751 -21.912840 -9.792127 -27.086273 0.000000 0.000000 0.000000 7.125000 0.000000 0.000000 4.883243 1.205848 4.797164
15.134445 18.154269 5.390118 1.588342 -10.796645 12.541101 0.000000 0.000000 0.000000 -18.857428 -11.471825 -18.122541 1.547191 7.851305 22.263368 0.311113 -9.534415 -11.174548 2.150842 -9.159063 -26.304634 0.000000 0.000000 0.000000 19.445775 6.228708 -20.996623 -1.541129 -7.836516 22.218778 -0.444238 9.799025 -12.810295 -1.902353 -8.659589 24.736164 -0.058247 -1.741543 10.904179 -1.118275 -2.425883 -2.032252 -0.718569 -1.205790 -8.337684 13.808509 5.984925 7.359264 -20.995011 4.449978 -39.815010 -12.125007 2.577374 -13.500493 0.000000 0.000000 0.000000 59.364711 4.457312 -33.882817 156.716900 -34.395042 112.701579 2.858267 -41.721315 -6.697561 0.000000 0.000000 0.000000 -7.125000 0.000000 0.000000 -19.866012 36.024641 -4.606876 0.000000 0.000000 0.000000 -40.812959 6.331779 29.901041 -154.853862 -36.351369 -111.622941 -22.154858 -6.833089 -24.901232 0.000000 0.000000 0.000000 7.125000 0.000000 0.000000 4.484946 3.429652 4.222169
15.098938 18.204589 5.561317 1.490097 -9.766916 13.231482 0.000000 0.000000 0.000000 -19.009689 -11.203023 -17.642267 1.366044 7.396922 20.896960 0.297202 -9.287251 -10.908315 2.005084 -8.875860 -25.408452 0.000000 0.000000 0.000000 19.801403 4.284686 -20.806815 -1.339271 -7.327226 20.688548 -0.326772 10.481027 -11.732524 -1.812977 -8.465207 24.136245 0.426112 -1.780333 9.239152 -0.811801 -2.389487 -2.266713 -0.719856 -1.207492 -7.635113 13.473872 6.159897 6.453717 -21.417989 4.417116 -39.418742 -12.098782 2.665252 -13.100181 0.000000 0.000000 0.000000 53.432717 5.161241 -40.906382 152.749347 -38.414202 110.344401 1.279417 -38.466618 -7.165387 0.000000 0.000000 0.000000 -7.125000 0.000000 0.000000 -21.245596 36.363303 -4.784246 0.000000 0.000000 0.000000 -38.831076 9.479090 50.434311 -148.027031 -42.520138 -107.275509 -14.368117 -0.929047 -29.215767 0.000000 0.000000 0.000000 7.125000 0.000000 0.000000 9.546883 0.345802 9.626609
15.100864 18.157212 5.787080 0.683892 -8.988792 13.554139 0.000000 0.000000 0.000000 -18.712932 -11.080183 -15.703843 1.099079 6.661621 18.716644 0.391324 -8.857092 -11.915253 0.985267 -6.314177 -17.700140 0.000000 0.000000 0.000000 21.234771 0.305859 -21.507988 -1.313973 -7.260513 20.489404 -0.123086 14.075445 -11.278269 -2.033328 -8.931647 25.584335 1.268121 -2.209326 7.309128 -0.156219 -2.838764 -1.987871 -0.515721 -1.449192 -6.247272 14.754628 6.550299 6.134198 -21.455022 5.162761 -40.472711 -12.525138 2.761424 -13.249011 0.000000 0.000000 0.000000 50.168431 8.780205 -53.863300 150.889112 -40.118756 109.167803 -6.138580 -33.665141 -6.892896 0.000000 0.000000 0.000000 -7.125000 0.000000 0.000000 -26.952722 35.603058 -6.866192 0.000000 0.000000 0.000000 -39.137559 9.186516 56.051614 -147.603215 -42.859484 -106.989430 -10.177798 2.713462 -32.183409 0.000000 0.000000 0.000000 7.125000 0.000000 0.000000 12.166960 -1.971279 12.868017
15.126974 18.133639 5.880029 -0.014241 -9.792109 13.273828 0.000000 0.000000 0.000000 -18.470782 -10.354892 -14.015542 0.958588 6.234399 17.466117 0.593117 -6.962551 -13.837856 2.006103 -8.876432 -25.411193 0.000000 0.000000 0.000000 22.114037 -0.805648 -20.824624 -1.241219 -7.064257 19.905993 -0.047521 15.550051 -11.425123 -2.046632 -8.962503 25.678071 1.997184 -2.003763 7.723202 -0.121412 -2.480211 -2.402049 -0.909998 -1.306556 -6.947362 15.256481 5.952716 8.706311 -20.833760 4.993646 -40.591161 -12.610944 2.564073 -13.990117 0.000000 0.000000 0.000000 55.596674 8.839366 -52.308382 156.923391 -34.163635 112.814890 -13.337198 -34.253789 -5.632066 0.000000 0.000000 0.000000 -7.125000 0.000000 0.000000 -31.822416 33.931457 -10.006871 0.000000 0.000000 0.000000 -40.432349 7.109055 39.881693 -154.645078 -36.557878 -111.496817 -19.916198 -8.693656 -27.300146 0.000000 0.000000 0.000000 7.125000 0.000000 0.000000 6.091111 1.357068 5.993339
15.115623 18.171834 5.900992 0.617504 -9.872828 13.332405 0.000000 0.000000 0.000000 -18.974098 -8.720865 -14.565432 0.880140 5.980732 16.728651 0.302928 -10.235982 -11.347627 1.490864 -7.711225 -21.841445 0.000000 0.000000 0.000000 20.960559 2.247373 -20.173042 -1.331189 -7.305846 20.624848 -0.259256 12.293563 -11.782006 -1.955185 -8.771208 25.082797 1.189582 -1.800235 7.605943 -0.547983 -2.322064 -2.487831 -0.927761 -1.205084 -6.949461 15.023759 5.833642 9.121655 -20.530592 5.072781 -38.582090 -12.093588 2.737535 -13.158128 0.000000 0.000000 0.000000 63.398785 4.493853 -32.871785 160.096292 -30.525839 114.517477 -0.189620 -44.761255 -5.940484 0.000000 0.000000 0.000000 -7.125000 0.000000 0.000000 -22.080135 35.130980 -5.709310 0.000000 0.000000 0.000000 -41.889962 2.057590 13.595699 -155.983654 -35.181142 -112.283864 -23.378754 -13.866259 -23.953723 0.000000 0.000000 0.000000 7.125000 0.000000 0.000000 3.628683 4.197708 3.360708
